0
SECTION
2
HEADER
9
$INSUNITS
70
4
9
$ACADVER
1
AC1014
9
$HANDSEED
5
FFFF
0
ENDSEC
0
SECTION
2
TABLES
0
TABLE
2
VPORT
5
8
100
AcDbSymbolTable
0
ENDTAB
0
TABLE
2
LTYPE
5
5
100
AcDbSymbolTable
0
LTYPE
5
14
100
AcDbSymbolTableRecord
100
AcDbLinetypeTableRecord
2
BYBLOCK
70
0
0
LTYPE
5
15
100
AcDbSymbolTableRecord
100
AcDbLinetypeTableRecord
2
BYLAYER
70
0
0
ENDTAB
0
TABLE
2
LAYER
5
2
100
AcDbSymbolTable
70
2
0
LAYER
5
50
100
AcDbSymbolTableRecord
100
AcDbLayerTableRecord
2
0
70
0
6
CONTINUOUS
0
ENDTAB
0
TABLE
2
STYLE
5
3
100
AcDbSymbolTable
70
1
0
STYLE
5
11
100
AcDbSymbolTableRecord
100
AcDbTextStyleTableRecord
2
STANDARD
70
0
0
ENDTAB
0
TABLE
2
VIEW
5
6
100
AcDbSymbolTable
70
0
0
ENDTAB
0
TABLE
2
UCS
5
7
100
AcDbSymbolTable
70
0
0
ENDTAB
0
TABLE
2
APPID
5
9
100
AcDbSymbolTable
70
2
0
APPID
5
12
100
AcDbSymbolTableRecord
100
AcDbRegAppTableRecord
2
ACAD
70
0
0
ENDTAB
0
TABLE
2
DIMSTYLE
5
A
100
AcDbSymbolTable
70
1
0
ENDTAB
0
TABLE
2
BLOCK_RECORD
5
1
100
AcDbSymbolTable
70
1
0
BLOCK_RECORD
5
1F
100
AcDbSymbolTableRecord
100
AcDbBlockTableRecord
2
*MODEL_SPACE
0
BLOCK_RECORD
5
1B
100
AcDbSymbolTableRecord
100
AcDbBlockTableRecord
2
*PAPER_SPACE
0
ENDTAB
0
ENDSEC
0
SECTION
2
BLOCKS
0
BLOCK
5
20
100
AcDbEntity
100
AcDbBlockBegin
2
*MODEL_SPACE
0
ENDBLK
5
21
100
AcDbEntity
100
AcDbBlockEnd
0
BLOCK
5
1C
100
AcDbEntity
100
AcDbBlockBegin
2
*PAPER_SPACE
0
ENDBLK
5
1D
100
AcDbEntity
100
AcDbBlockEnd
0
ENDSEC
0
SECTION
2
ENTITIES
0
LWPOLYLINE
5
100
100
AcDbEntity
8
0
100
AcDbPolyline
90
8
70
1
43
0.0
10
288.899999999984
20
20.764163616723458
10
300.90000000005296
20
20.764163616723458
42
0.41421356237310314
10
304.89999999999998
20
24.764163616670437
10
304.89999999999998
20
26.764163616724218
42
0.41421356237309148
10
300.90000000000077
20
30.764163616723458
10
288.89999999999998
20
30.764163616723458
42
0.41421356237309537
10
284.89999999999998
20
26.764163616723472
10
284.89999999999998
20
24.764163616707471
42
0.41421356237309631
0
LWPOLYLINE
5
101
100
AcDbEntity
8
0
100
AcDbPolyline
90
8
70
1
43
0.0
10
284.89999999999998
20
-24.76416373591676
42
-0.41421356237533485
10
288.899999999984
20
-20.764163735902162
10
300.90000000005301
20
-20.764163735932762
42
-0.41421356237309925
10
304.89999999999998
20
-24.76416373587973
10
304.89999999999998
20
-26.764163735933511
42
-0.4142135623702663
10
300.90000000000077
20
-30.764163735894169
10
288.89999999999998
20
-30.764163735932755
42
-0.41421356237309537
10
284.89999999999998
20
-26.764163735932765
0
CIRCLE
5
102
100
AcDbEntity
8
0
100
AcDbCircle
10
46.46057064384955
20
-10.252102745872339
30
0
40
1.9000000000000037
210
0
220
-0
230
1
0
CIRCLE
5
103
100
AcDbEntity
8
0
100
AcDbCircle
10
46.460570643849564
20
7.1228972541276576
30
0
40
1.9000000000000037
210
0
220
-0
230
1
0
CIRCLE
5
104
100
AcDbEntity
8
0
100
AcDbCircle
10
215.06136741266738
20
-7.7507887808668361
30
0
40
1.0000000000000142
210
0
220
-0
230
1
0
CIRCLE
5
105
100
AcDbEntity
8
0
100
AcDbCircle
10
195.06136741266778
20
-33.250788780867083
30
0
40
1.4999999999999858
210
0
220
-0
230
1
0
CIRCLE
5
106
100
AcDbEntity
8
0
100
AcDbCircle
10
225.0812218981539
20
4.3488226488339148
30
0
40
1.4999999999999858
210
0
220
-0
230
1
0
CIRCLE
5
107
100
AcDbEntity
8
0
100
AcDbCircle
10
255.1010763836407
20
-23.251565921465058
30
0
40
1.4999999999999858
210
0
220
-0
230
1
0
CIRCLE
5
108
100
AcDbEntity
8
0
100
AcDbCircle
10
275.10107638364036
20
2.2484340785351908
30
0
40
1.0000000000000142
210
0
220
-0
230
1
0
CIRCLE
5
109
100
AcDbEntity
8
0
100
AcDbCircle
10
285.12093086912682
20
7.2480455082359319
30
0
40
1.0000000000000142
210
0
220
-0
230
1
0
LWPOLYLINE
5
110
100
AcDbEntity
8
0
100
AcDbPolyline
90
16
70
1
43
0.0
10
200.62631225532391
20
-34.006634671963887
10
209.62631225532391
20
-34.006634671963951
42
0.41421356237308982
10
211.12631225532391
20
-32.50663467196398
10
211.12631225532391
20
-29.506634671963777
42
-0.41421356237309243
10
212.62631225532388
20
-28.006634671963802
10
216.12631225532326
20
-28.006634671963827
42
0.4142135623730846
10
217.62631225532323
20
-26.506634671963841
10
217.62631225532323
20
-23.506634671963852
42
0.41421356237309936
10
216.12631225532326
20
-22.006634671963852
10
194.12631225532323
20
-22.006634671963866
42
0.4142135623730846
10
192.62631225532323
20
-23.506634671963852
10
192.62631225532323
20
-26.506634671963809
42
0.41421356237310025
10
194.12631225532323
20
-28.006634671963813
10
197.62631225532397
20
-28.006634671963695
42
-0.41421356237309764
10
199.12631225532394
20
-29.506634671963695
10
199.12631225532394
20
-32.50663467196388
42
0.41421356237310025
0
LWPOLYLINE
5
111
100
AcDbEntity
8
0
100
AcDbPolyline
90
16
70
1
43
0.0
10
301.1858757117833
20
-17.507800382860943
42
-0.41421356237309026
10
299.6858757117833
20
-19.007800382860914
10
290.6858757117833
20
-19.007800382860836
42
-0.41421356237310503
10
289.1858757117833
20
-17.507800382860836
10
289.1858757117833
20
-14.507800382860658
42
0.41421356237309764
10
287.68587571178335
20
-13.007800382860646
10
284.18587571178261
20
-13.007800382860783
42
-0.41421356237311413
10
282.68587571178261
20
-11.507800382860772
10
282.68587571178261
20
-8.5078003828608111
42
-0.4142135623730922
10
284.18587571178261
20
-7.0078003828608235
10
306.18587571178261
20
-7.0078003828607995
42
-0.41421356237311369
10
307.68587571178261
20
-8.5078003828608093
10
307.68587571178261
20
-11.507800382860802
42
-0.4142135623730846
10
306.18587571178261
20
-13.007800382860788
10
302.6858757117833
20
-13.007800382860761
42
0.41421356237309331
10
301.1858757117833
20
-14.507800382860738
0
CIRCLE
5
112
100
AcDbEntity
8
0
100
AcDbCircle
10
305.12093086912671
20
14.348045508236211
30
0
40
1.4999999999999858
210
0
220
-0
230
1
0
CIRCLE
5
113
100
AcDbEntity
8
0
100
AcDbCircle
10
305.12093086912711
20
-18.251954491763772
30
0
40
1.4999999999999858
210
0
220
-0
230
1
0
CIRCLE
5
114
100
AcDbEntity
8
0
100
AcDbCircle
10
275.10107638364025
20
9.3484340785351971
30
0
40
1.4999999999999858
210
0
220
-0
230
1
0
CIRCLE
5
115
100
AcDbEntity
8
0
100
AcDbCircle
10
245.08122189815418
20
-28.251177351165797
30
0
40
1.4999999999999858
210
0
220
-0
230
1
0
CIRCLE
5
116
100
AcDbEntity
8
0
100
AcDbCircle
10
245.08122189815379
20
4.3488226488341848
30
0
40
1.4999999999999858
210
0
220
-0
230
1
0
CIRCLE
5
117
100
AcDbEntity
8
0
100
AcDbCircle
10
195.06136741266744
20
-7.750788780867107
30
0
40
1.0000000000000142
210
0
220
-0
230
1
0
CIRCLE
5
118
100
AcDbEntity
8
0
100
AcDbCircle
10
215.06136741266729
20
-0.6507887808668289
30
0
40
1.4999999999999858
210
0
220
-0
230
1
0
CIRCLE
5
119
100
AcDbEntity
8
0
100
AcDbCircle
10
215.06136741266772
20
-33.250788780866813
30
0
40
1.4999999999999858
210
0
220
-0
230
1
0
CIRCLE
5
120
100
AcDbEntity
8
0
100
AcDbCircle
10
225.08122189815393
20
-2.7511773511660929
30
0
40
1.0000000000000142
210
0
220
-0
230
1
0
CIRCLE
5
121
100
AcDbEntity
8
0
100
AcDbCircle
10
255.10107638364042
20
2.2484340785349199
30
0
40
1.0000000000000142
210
0
220
-0
230
1
0
CIRCLE
5
122
100
AcDbEntity
8
0
100
AcDbCircle
10
275.10107638364059
20
-23.251565921464788
30
0
40
1.4999999999999858
210
0
220
-0
230
1
0
CIRCLE
5
123
100
AcDbEntity
8
0
100
AcDbCircle
10
285.12093086912682
20
14.348045508235941
30
0
40
1.4999999999999858
210
0
220
-0
230
1
0
LWPOLYLINE
5
124
100
AcDbEntity
8
0
100
AcDbPolyline
90
16
70
1
43
0.0
10
230.64616674081037
20
-29.007023242262875
10
239.64616674081037
20
-29.007023242262939
42
0.41421356237308982
10
241.14616674081034
20
-27.507023242262964
10
241.14616674081037
20
-24.507023242262761
42
-0.41421356237309243
10
242.64616674081037
20
-23.00702324226279
10
246.14616674080969
20
-23.007023242262811
42
0.4142135623730846
10
247.64616674080969
20
-21.507023242262825
10
247.64616674080969
20
-18.507023242262836
42
0.41421356237310025
10
246.14616674080969
20
-17.007023242262839
10
224.14616674080969
20
-17.00702324226285
42
0.4142135623730846
10
222.64616674080969
20
-18.507023242262836
10
222.64616674080969
20
-21.507023242262797
42
0.41421356237310025
10
224.14616674080969
20
-23.007023242262797
10
227.6461667408104
20
-23.007023242262683
42
-0.41421356237309764
10
229.14616674081037
20
-24.507023242262683
10
229.14616674081037
20
-27.507023242262861
42
0.41421356237310025
0
LWPOLYLINE
5
125
100
AcDbEntity
8
0
100
AcDbPolyline
90
16
70
1
43
0.0
10
260.66602122629683
20
-24.007411812561863
10
269.66602122629683
20
-24.007411812561926
42
0.41421356237309159
10
271.16602122629678
20
-22.507411812561951
10
271.16602122629683
20
-19.507411812561749
42
-0.41421356237309243
10
272.66602122629683
20
-18.007411812561777
10
276.16602122629615
20
-18.007411812561799
42
0.4142135623730846
10
277.66602122629615
20
-16.507411812561813
10
277.66602122629615
20
-13.507411812561823
42
0.41421356237309936
10
276.16602122629615
20
-12.007411812561823
10
254.16602122629612
20
-12.007411812561838
42
0.4142135623730846
10
252.66602122629615
20
-13.507411812561823
10
252.66602122629615
20
-16.507411812561784
42
0.41421356237309936
10
254.16602122629612
20
-18.007411812561784
10
257.66602122629683
20
-18.007411812561674
42
-0.41421356237309681
10
259.16602122629683
20
-19.507411812561667
10
259.16602122629683
20
-22.507411812561848
42
0.41421356237310025
0
CIRCLE
5
126
100
AcDbEntity
8
0
100
AcDbCircle
10
305.12093086912677
20
7.2480455082362027
30
0
40
1.0000000000000142
210
0
220
-0
230
1
0
CIRCLE
5
127
100
AcDbEntity
8
0
100
AcDbCircle
10
285.12093086912716
20
-18.251954491764046
30
0
40
1.4999999999999858
210
0
220
-0
230
1
0
CIRCLE
5
128
100
AcDbEntity
8
0
100
AcDbCircle
10
255.10107638364033
20
9.3484340785349254
30
0
40
1.4999999999999858
210
0
220
-0
230
1
0
CIRCLE
5
129
100
AcDbEntity
8
0
100
AcDbCircle
10
225.08122189815424
20
-28.251177351166071
30
0
40
1.4999999999999858
210
0
220
-0
230
1
0
CIRCLE
5
130
100
AcDbEntity
8
0
100
AcDbCircle
10
245.08122189815384
20
-2.751177351165822
30
0
40
1.0000000000000142
210
0
220
-0
230
1
0
CIRCLE
5
131
100
AcDbEntity
8
0
100
AcDbCircle
10
195.06136741266744
20
-0.65078878086709979
30
0
40
1.4999999999999858
210
0
220
-0
230
1
0
CIRCLE
5
132
100
AcDbEntity
8
0
100
AcDbCircle
10
194.80986408169574
20
32.464163616703665
30
0
40
1.9999999999999929
210
0
220
-0
230
1
0
CIRCLE
5
133
100
AcDbEntity
8
0
100
AcDbCircle
10
185.99999999999994
20
-33.535836383276397
30
0
40
1.9999999999999929
210
0
220
-0
230
1
0
CIRCLE
5
134
100
AcDbEntity
8
0
100
AcDbCircle
10
303.5
20
44.264163616723458
30
0
40
2.3999999999999844
210
0
220
0
230
1
0
LWPOLYLINE
5
135
100
AcDbEntity
8
0
100
AcDbPolyline
90
34
70
1
43
0.0
10
55.021141287699095
20
27.692352041325229
42
-0.379650815660595
10
56.782850846462232
20
29.678105718299076
10
130
20
38.464163616723617
10
276
20
38.464163616723475
10
296
20
49.964163616723489
10
311
20
49.96416361672344
10
311
20
38.46416361672344
10
315
20
38.464163616723432
10
315
20
25
10
310.89999999999998
20
25
10
310.89999999999998
20
15
10
315
20
15
10
315
20
5
10
310.89999999999998
20
5
10
310.89999999999998
20
-5
10
315
20
-5
10
315
20
-15
10
310.89999999999998
20
-15
10
310.89999999999998
20
-25
10
315
20
-25
10
315
20
-38.535836383276404
10
311
20
-38.535836383276397
10
311
20
-49.964163735932729
10
296
20
-49.964163735932779
10
276.12464808233676
20
-38.535836383276397
10
139.99999999999997
20
-38.535836383276397
10
55.821141287699106
20
-28.101781297114705
10
55.021141287699109
20
-28.101781297114705
10
55.021141287699095
20
-14.004205432139729
10
45.421141287699086
20
-14.004205432139724
42
-0.41421356237309348
10
42.921141287699093
20
-11.504205432139729
10
42.921141287699101
20
8.4957945678602762
42
-0.41421356237309453
10
45.421141287699101
20
10.995794567860276
10
55.021141287699095
20
10.995794567860276
0
CIRCLE
5
136
100
AcDbEntity
8
0
100
AcDbCircle
10
303.5
20
-44.264163735932755
30
0
40
2.3999999999999844
210
0
220
-0
230
1
0
ENDSEC
0
SECTION
2
OBJECTS
0
DICTIONARY
5
C
100
AcDbDictionary
3
ACAD_GROUP
350
D
3
ACAD_MLINESTYLE
350
17
0
DICTIONARY
5
D
100
AcDbDictionary
0
DICTIONARY
5
1A
330
C
100
AcDbDictionary
0
DICTIONARY
5
17
100
AcDbDictionary
0
ENDSEC
0
EOF
