0
SECTION
2
HEADER
9
$INSUNITS
70
4
9
$ACADVER
1
AC1014
9
$HANDSEED
5
FFFF
0
ENDSEC
0
SECTION
2
TABLES
0
TABLE
2
VPORT
5
8
100
AcDbSymbolTable
0
ENDTAB
0
TABLE
2
LTYPE
5
5
100
AcDbSymbolTable
0
LTYPE
5
14
100
AcDbSymbolTableRecord
100
AcDbLinetypeTableRecord
2
BYBLOCK
70
0
0
LTYPE
5
15
100
AcDbSymbolTableRecord
100
AcDbLinetypeTableRecord
2
BYLAYER
70
0
0
ENDTAB
0
TABLE
2
LAYER
5
2
100
AcDbSymbolTable
70
2
0
LAYER
5
50
100
AcDbSymbolTableRecord
100
AcDbLayerTableRecord
2
0
70
0
6
CONTINUOUS
0
ENDTAB
0
TABLE
2
STYLE
5
3
100
AcDbSymbolTable
70
1
0
STYLE
5
11
100
AcDbSymbolTableRecord
100
AcDbTextStyleTableRecord
2
STANDARD
70
0
0
ENDTAB
0
TABLE
2
VIEW
5
6
100
AcDbSymbolTable
70
0
0
ENDTAB
0
TABLE
2
UCS
5
7
100
AcDbSymbolTable
70
0
0
ENDTAB
0
TABLE
2
APPID
5
9
100
AcDbSymbolTable
70
2
0
APPID
5
12
100
AcDbSymbolTableRecord
100
AcDbRegAppTableRecord
2
ACAD
70
0
0
ENDTAB
0
TABLE
2
DIMSTYLE
5
A
100
AcDbSymbolTable
70
1
0
ENDTAB
0
TABLE
2
BLOCK_RECORD
5
1
100
AcDbSymbolTable
70
1
0
BLOCK_RECORD
5
1F
100
AcDbSymbolTableRecord
100
AcDbBlockTableRecord
2
*MODEL_SPACE
0
BLOCK_RECORD
5
1B
100
AcDbSymbolTableRecord
100
AcDbBlockTableRecord
2
*PAPER_SPACE
0
ENDTAB
0
ENDSEC
0
SECTION
2
BLOCKS
0
BLOCK
5
20
100
AcDbEntity
100
AcDbBlockBegin
2
*MODEL_SPACE
0
ENDBLK
5
21
100
AcDbEntity
100
AcDbBlockEnd
0
BLOCK
5
1C
100
AcDbEntity
100
AcDbBlockBegin
2
*PAPER_SPACE
0
ENDBLK
5
1D
100
AcDbEntity
100
AcDbBlockEnd
0
ENDSEC
0
SECTION
2
ENTITIES
0
LWPOLYLINE
5
100
100
AcDbEntity
8
0
100
AcDbPolyline
90
18
70
1
43
0.0
10
55.021141287699109
20
27.692352041325123
42
-0.379650815660595
10
56.782850846462253
20
29.678105718298969
10
129.99999999999994
20
38.464163616723496
10
194.80986408169574
20
38.464163616723525
42
-0.68860194952631515
10
198.80862988232309
20
27.990924066671315
10
194.33539033230574
20
23.992158266057267
42
0.21349389387881182
10
190.99999999999994
20
16.536759016037571
10
190.99999999999994
20
-35.535836383276504
42
-0.4142135623730942
10
187.99999999999994
20
-38.535836383276511
10
139.99999999999994
20
-38.535836383276511
10
59.406092953336149
20
-28.546139699363135
42
-0.37853767173441649
10
55.021141287699102
20
-23.58411233684312
10
55.021141287699109
20
-14.004205432139958
10
45.421141287699108
20
-14.004205432139958
42
-0.41421356237309503
10
42.921141287699108
20
-11.504205432139958
10
42.921141287699115
20
8.4957945678600471
42
-0.41421356237309503
10
45.421141287699115
20
10.995794567860047
10
55.021141287699109
20
10.995794567860049
0
CIRCLE
5
101
100
AcDbEntity
8
0
100
AcDbCircle
10
185.99999999999994
20
-33.535836383276511
30
0
40
1.9999999999999929
210
1.4853709878003628e-78
220
-1.9340838179437002e-46
230
1
0
CIRCLE
5
102
100
AcDbEntity
8
0
100
AcDbCircle
10
194.80986408169574
20
32.464163616703559
30
2.2204460492503131e-15
40
1.9999999999999929
210
2.0416326224866148e-91
220
-1.9426102998648262e-46
230
1
0
LWPOLYLINE
5
103
100
AcDbEntity
8
0
100
AcDbPolyline
90
16
70
1
43
0.0
10
81.987489593551217
20
-23.193340354079378
10
90.987489593551174
20
-23.193340354079325
42
0.41421356237309764
10
92.487489593551189
20
-21.693340354079325
10
92.487489593551103
20
-18.693340354079158
42
-0.41421356237308898
10
93.987489593551103
20
-17.193340354079155
10
97.487489593551828
20
-17.193340354079279
42
0.41421356237309465
10
98.987489593551814
20
-15.693340354079286
10
98.987489593551828
20
-12.693340354079348
42
0.41421356237309503
10
97.487489593551842
20
-11.193340354079362
10
75.487489593551942
20
-11.193340354079345
42
0.41421356237309465
10
73.987489593551956
20
-12.693340354079329
10
73.987489593551956
20
-15.693340354079302
42
0.41421356237309503
10
75.487489593551942
20
-17.193340354079304
10
78.987489593551246
20
-17.193340354079254
42
-0.41421356237308898
10
80.487489593551231
20
-18.693340354079226
10
80.487489593551302
20
-21.693340354079421
42
0.41421356237309331
0
CIRCLE
5
104
100
AcDbEntity
8
0
100
AcDbCircle
10
166.67226187132434
20
30.006871520063576
30
0
40
1.4999999999999858
210
-1.1652723680379958e-77
220
-2.0070681129604421e-46
230
1
0
CIRCLE
5
105
100
AcDbEntity
8
0
100
AcDbCircle
10
76.552434436207776
20
3.0625055370175902
30
0
40
0.99999999999999645
210
-1.1652723680379887e-77
220
-2.0070681129604421e-46
230
1
0
CIRCLE
5
106
100
AcDbEntity
8
0
100
AcDbCircle
10
166.67226187132405
20
4.5068715200636555
30
0
40
1.0000000000000142
210
-1.1652723680379958e-77
220
-2.0070681129604421e-46
230
1
0
LWPOLYLINE
5
107
100
AcDbEntity
8
0
100
AcDbPolyline
90
16
70
1
43
0.0
10
164.23720671397979
20
23.262717411160317
42
-0.41421356237309503
10
165.73720671397979
20
24.762717411160324
10
169.23720671398053
20
24.762717411160196
42
0.41421356237310025
10
170.7372067139805
20
26.262717411160203
10
170.7372067139805
20
29.262717411160377
42
-0.41421356237309681
10
172.23720671398047
20
30.762717411160381
10
181.23720671398047
20
30.762717411160381
42
-0.41421356237309159
10
182.73720671398038
20
29.262717411160484
10
182.73720671398047
20
26.262717411160281
42
0.41421356237309076
10
184.23720671398044
20
24.762717411160317
10
187.73720671397973
20
24.762717411160338
42
-0.41421356237309503
10
189.23720671397973
20
23.262717411160352
10
189.23720671397973
20
20.262717411160374
42
-0.41421356237309503
10
187.73720671397973
20
18.76271741116037
10
165.73720671397979
20
18.762717411160388
42
-0.41421356237309503
10
164.23720671397979
20
20.262717411160374
0
CIRCLE
5
108
100
AcDbEntity
8
0
100
AcDbCircle
10
186.67226187132385
20
-2.5931284799365844
30
-2.2204460492503131e-15
40
1.4999999999999858
210
-1.1652723680379958e-77
220
-2.0070681129604421e-46
230
1
0
CIRCLE
5
109
100
AcDbEntity
8
0
100
AcDbCircle
10
96.552434436207591
20
3.0625055370173149
30
0
40
0.99999999999999645
210
-1.1652723680379887e-77
220
-2.0070681129604421e-46
230
1
0
CIRCLE
5
110
100
AcDbEntity
8
0
100
AcDbCircle
10
156.56611612284965
20
24.945304516802498
30
0
40
1.5000000000000036
210
-1.2325951644078309e-32
220
-2.0070681129604421e-46
230
1
0
CIRCLE
5
111
100
AcDbEntity
8
0
100
AcDbCircle
10
166.67226187132403
20
-2.5931284799363223
30
-2.2204460492503131e-15
40
1.4999999999999858
210
-1.1652723680379958e-77
220
-2.0070681129604421e-46
230
1
0
CIRCLE
5
112
100
AcDbEntity
8
0
100
AcDbCircle
10
106.60650379957309
20
-1.9221883510452691
30
0
40
0.99999999999999645
210
-1.1652723680379887e-77
220
-2.0070681129604421e-46
230
1
0
CIRCLE
5
113
100
AcDbEntity
8
0
100
AcDbCircle
10
186.67226187132422
20
30.006871520063314
30
0
40
1.4999999999999858
210
-1.1652723680379958e-77
220
-2.0070681129604421e-46
230
1
0
LWPOLYLINE
5
114
100
AcDbEntity
8
0
100
AcDbPolyline
90
16
70
1
43
0.0
10
112.0415589569165
20
-28.178034242142243
10
121.04155895691646
20
-28.178034242142189
42
0.41421356237309681
10
122.54155895691648
20
-26.678034242142196
10
122.5415589569164
20
-23.678034242142026
42
-0.41421356237309936
10
124.04155895691643
20
-22.178034242142026
10
127.54155895691713
20
-22.178034242142147
42
0.41421356237309503
10
129.04155895691713
20
-20.678034242142147
10
129.04155895691713
20
-17.678034242142221
42
0.41421356237309159
10
127.54155895691716
20
-16.178034242142235
10
105.54155895691727
20
-16.178034242142207
42
0.41421356237309809
10
104.04155895691727
20
-17.6780342421422
10
104.04155895691727
20
-20.678034242142161
42
0.41421356237309503
10
105.54155895691724
20
-22.178034242142168
10
109.04155895691653
20
-22.178034242142108
42
-0.41421356237308721
10
110.54155895691652
20
-23.67803424214209
10
110.54155895691659
20
-26.678034242142282
42
0.41421356237309159
0
CIRCLE
5
115
100
AcDbEntity
8
0
100
AcDbCircle
10
136.56611612284985
20
24.945304516802768
30
0
40
1.5000000000000036
210
-1.2325951644078309e-32
220
-2.0070681129604421e-46
230
1
0
CIRCLE
5
116
100
AcDbEntity
8
0
100
AcDbCircle
10
126.60650379957259
20
-27.422188351045396
30
0
40
1.5000000000000036
210
-1.2325951644078309e-32
220
-2.0070681129604421e-46
230
1
0
CIRCLE
5
117
100
AcDbEntity
8
0
100
AcDbCircle
10
76.552434436207847
20
10.162505537017548
30
0
40
1.5000000000000036
210
-1.2325951644078309e-32
220
-2.0070681129604421e-46
230
1
0
CIRCLE
5
118
100
AcDbEntity
8
0
100
AcDbCircle
10
136.56611612284951
20
-7.6546954831970657
30
0
40
1.5000000000000036
210
-1.2325951644078309e-32
220
-2.0070681129604421e-46
230
1
0
CIRCLE
5
119
100
AcDbEntity
8
0
100
AcDbCircle
10
126.60650379957292
20
5.1778116489544015
30
-2.2204460492503131e-15
40
1.5000000000000036
210
-1.2325951644078309e-32
220
-2.0070681129604421e-46
230
1
0
CIRCLE
5
120
100
AcDbEntity
8
0
100
AcDbCircle
10
186.67226187132394
20
4.5068715200633935
30
0
40
1.0000000000000142
210
-1.1652723680379958e-77
220
-2.0070681129604421e-46
230
1
0
CIRCLE
5
121
100
AcDbEntity
8
0
100
AcDbCircle
10
106.60650379957316
20
5.1778116489546857
30
-2.2204460492503131e-15
40
1.5000000000000036
210
-1.2325951644078309e-32
220
-2.0070681129604421e-46
230
1
0
CIRCLE
5
122
100
AcDbEntity
8
0
100
AcDbCircle
10
76.552434436207477
20
-22.437494462982247
30
0
40
1.5000000000000036
210
-1.2325951644078309e-32
220
-2.0070681129604421e-46
230
1
0
CIRCLE
5
123
100
AcDbEntity
8
0
100
AcDbCircle
10
156.56611612284931
20
-7.6546954831973322
30
0
40
1.5000000000000036
210
-1.2325951644078309e-32
220
-2.0070681129604421e-46
230
1
0
CIRCLE
5
124
100
AcDbEntity
8
0
100
AcDbCircle
10
126.60650379957289
20
-1.9221883510455533
30
0
40
0.99999999999999645
210
-1.1652723680379887e-77
220
-2.0070681129604421e-46
230
1
0
CIRCLE
5
125
100
AcDbEntity
8
0
100
AcDbCircle
10
156.56611612284937
20
-0.55469548319736939
30
0
40
0.99999999999999645
210
-1.1652723680379887e-77
220
-2.0070681129604421e-46
230
1
0
CIRCLE
5
126
100
AcDbEntity
8
0
100
AcDbCircle
10
96.552434436207619
20
10.162505537017273
30
0
40
1.5000000000000036
210
-1.2325951644078309e-32
220
-2.0070681129604421e-46
230
1
0
LWPOLYLINE
5
127
100
AcDbEntity
8
0
100
AcDbPolyline
90
16
70
1
43
0.0
10
151.13106096550592
20
25.701150407899625
10
142.13106096550598
20
25.701150407899569
42
0.41421356237309681
10
140.63106096550595
20
24.201150407899569
10
140.63106096550595
20
21.201150407899402
42
-0.4142135623730942
10
139.13106096550598
20
19.701150407899394
10
135.63106096550527
20
19.701150407899519
42
0.41421356237309503
10
134.1310609655053
20
18.201150407899519
10
134.1310609655053
20
15.201150407899579
42
0.41421356237309503
10
135.63106096550527
20
13.701150407899581
10
157.63106096550518
20
13.701150407899576
42
0.41421356237309503
10
159.13106096550518
20
15.201150407899576
10
159.13106096550518
20
18.201150407899551
42
0.41421356237309503
10
157.63106096550518
20
19.701150407899551
10
154.1310609655059
20
19.701150407899494
42
-0.41421356237308721
10
152.6310609655059
20
21.201150407899476
10
152.63106096550584
20
24.201150407899668
42
0.41421356237309159
0
CIRCLE
5
128
100
AcDbEntity
8
0
100
AcDbCircle
10
96.552434436207264
20
-22.437494462982531
30
0
40
1.5000000000000036
210
-1.2325951644078309e-32
220
-2.0070681129604421e-46
230
1
0
CIRCLE
5
129
100
AcDbEntity
8
0
100
AcDbCircle
10
136.56611612284956
20
-0.55469548319710404
30
0
40
0.99999999999999645
210
-1.1652723680379887e-77
220
-2.0070681129604421e-46
230
1
0
CIRCLE
5
130
100
AcDbEntity
8
0
100
AcDbCircle
10
106.60650379957278
20
-27.422188351045111
30
0
40
1.5000000000000036
210
-1.2325951644078309e-32
220
-2.0070681129604421e-46
230
1
0
CIRCLE
5
131
100
AcDbEntity
8
0
100
AcDbCircle
10
46.460570643849564
20
7.1228972541275404
30
-2.2204460492503131e-15
40
1.9000000000000037
210
1.2591767886258617e-78
220
-1.9353871089261425e-46
230
1
0
CIRCLE
5
132
100
AcDbEntity
8
0
100
AcDbCircle
10
46.46057064384955
20
-10.252102745872456
30
0
40
1.9000000000000037
210
-4.4703303117055254e-79
220
-1.9451617912944561e-46
230
1
0
ENDSEC
0
SECTION
2
OBJECTS
0
DICTIONARY
5
C
100
AcDbDictionary
3
ACAD_GROUP
350
D
3
ACAD_MLINESTYLE
350
17
0
DICTIONARY
5
D
100
AcDbDictionary
0
DICTIONARY
5
1A
330
C
100
AcDbDictionary
0
DICTIONARY
5
17
100
AcDbDictionary
0
ENDSEC
0
EOF
